# xmcd
#
# Track frame offsets: 
#        150
#        8556
#        33021
#        55284
#        75283
#        92620
#        112575
#        130797
#        147382
#        163999
#        188063
#        216235
#
# Disc length: 3135 seconds
#
# Revision: 0
# Processed by: cddbd v1.5.2PL0 Copyright (c) Steve Scherf et al.
# Submitted via: ExactAudioCopy v0.99pb4
#
DISCID=8e0c3d0c
DTITLE=Sons of Fruity Metcalf - The Sons of Fruity Metcalf
DYEAR=1900
DGENRE=Country
TTITLE0=Murdoch Blues
TTITLE1=When You Poopie
TTITLE2=Magical Underwear
TTITLE3=Privacy Song
TTITLE4=Mom Is Pretty
TTITLE5=Homosexual Dream
TTITLE6=Los Angeles Zoo
TTITLE7=Everyone Bleeds
TTITLE8=Old Grapes
TTITLE9=Would You Let Him?
TTITLE10=Who's That Man?
TTITLE11=Homo Dream Wehome Remix
EXTD=
EXTT0=
EXTT1=
EXTT2=
EXTT3=
EXTT4=
EXTT5=
EXTT6=
EXTT7=
EXTT8=
EXTT9=
EXTT10=
EXTT11=
PLAYORDER=
